<svg width="580" height="400" xmlns="http://www.w3.org/2000/svg">
 <!-- Created with Method Draw - http://github.com/duopixel/Method-Draw/ -->

 <g>
  <title>background</title>
  <rect fill="#fff" id="canvas_background" height="402" width="582" y="-1" x="-1"/>
  <g display="none" overflow="visible" y="0" x="0" height="100%" width="100%" id="canvasGrid">
   <rect fill="url(#gridpattern)" stroke-width="0" y="0" x="0" height="100%" width="100%"/>
  </g>
 </g>
 <g>
  <title>Layer 1</title>
  <g id="svg_5">
   <path id="svg_4" fill-rule="nonzero" fill="#bf0000" d="m380.318317,186.717342c-2.438653,0.541923 -4.335382,1.89673 -5.690189,3.522498c-1.89673,2.167691 -5.148267,2.980575 -7.85788,2.167691l-9.75461,-2.709614c-2.709614,-0.812884 -4.606344,-2.709614 -5.419228,-5.419228c-0.541923,-2.438653 -1.354807,-4.606344 -2.438653,-6.774035c-1.354807,-2.980575 -0.812884,-6.503074 1.625768,-8.670765l14.089993,-13.819031c2.438653,-2.438653 6.232112,-2.709614 9.212687,-1.083846c0.812884,0.541923 1.89673,0.812884 2.980575,1.083846c2.980575,0.541923 6.503074,-0.270961 8.670765,-2.167691c5.419228,-4.877305 4.606344,-13.54807 -1.89673,-17.070568c-3.522498,-1.89673 -8.128842,-1.625768 -11.380379,1.083846c-2.438653,1.89673 -3.522498,4.335382 -3.79346,7.044996c-0.270961,2.980575 -1.89673,5.419228 -4.606344,6.503074l-20.322105,8.941726c-2.980575,1.354807 -6.232112,0.541923 -8.670765,-1.625768c-2.167691,-1.89673 -4.335382,-3.79346 -6.774035,-5.690189c-2.709614,-1.89673 -4.064421,-5.419228 -2.980575,-8.670765l1.625768,-5.419228c0.270961,0 0.812884,0.270961 1.083846,0.270961c6.503074,1.083846 12.464224,-3.79346 12.193263,-10.567494c0,-4.064421 -2.709614,-7.586919 -6.503074,-9.212687c-6.232112,-2.438653 -13.006147,1.354807 -14.089993,7.85788c-0.541923,2.438653 0,4.606344 1.083846,6.503074c1.354807,2.709614 0.812884,5.961151 -0.812884,8.128842c-1.89673,2.438653 -5.419228,3.79346 -8.399803,2.709614c-2.709614,-0.812884 -5.148267,-1.354807 -7.85788,-1.89673c-2.980575,-0.541923 -5.419228,-2.709614 -6.232112,-5.419228l-7.586919,-24.928448c0.270961,0 0.812884,-0.270961 1.083846,-0.270961c5.961151,-2.709614 8.128842,-10.025572 4.335382,-15.715761c-2.438653,-3.251537 -6.503074,-4.877305 -10.567494,-4.064421c-6.774035,1.354807 -10.025572,8.399803 -7.586919,14.360954c1.083846,2.167691 2.709614,3.79346 4.606344,4.877305c2.709614,1.354807 4.064421,4.335382 3.79346,7.315958l-1.354807,17.883452c-0.270961,3.251537 -2.438653,6.232112 -5.690189,7.044996c-5.148267,1.354807 -9.75461,3.251537 -14.360954,5.690189c-3.251537,1.625768 -7.044996,1.083846 -9.483649,-1.625768l-4.335382,-4.877305l0.812884,-0.812884c4.335382,-4.877305 2.980575,-12.735186 -2.980575,-15.986722c-3.522498,-1.89673 -7.85788,-1.625768 -11.109417,0.812884c-5.419228,4.064421 -5.419228,11.922301 -0.541923,16.257684c1.89673,1.625768 4.064421,2.438653 6.232112,2.438653c2.980575,0 5.419228,2.167691 6.503074,4.877305l1.083846,2.709614c1.083846,2.709614 0.541923,5.961151 -1.625768,8.128842c-2.709614,2.980575 -5.148267,6.232112 -7.044996,9.483649c-1.625768,2.709614 -4.606344,4.064421 -7.586919,3.79346l-25.470371,-2.438653l0,-1.354807c-0.270961,-6.503074 -6.232112,-11.380379 -12.735186,-9.75461c-3.79346,0.812884 -7.044996,4.064421 -7.85788,8.128842c-1.354807,6.774035 4.064421,12.464224 10.567494,12.464224c2.438653,0 4.606344,-0.812884 6.232112,-2.438653c2.167691,-1.89673 5.690189,-1.89673 8.128842,-0.812884l15.715761,7.85788c2.980575,1.354807 4.606344,4.606344 4.335382,7.85788c-0.270961,2.709614 -0.541923,5.148267 -0.541923,7.85788s0.270961,5.419228 0.541923,7.85788c0.270961,2.980575 -0.812884,5.961151 -3.251537,7.586919l-18.154414,12.735186c-0.270961,-0.270961 -0.541923,-0.812884 -0.812884,-1.083846c-4.335382,-4.877305 -12.193263,-4.606344 -16.257684,1.083846c-2.438653,3.251537 -2.438653,7.586919 -0.541923,11.109417c3.522498,5.961151 11.109417,7.044996 15.986722,2.709614c1.89673,-1.625768 2.980575,-3.79346 3.251537,-5.961151c0.541923,-2.980575 2.980575,-5.148267 5.690189,-5.961151l12.735186,-3.251537c3.251537,-0.812884 7.044996,0.541923 8.670765,3.522498c1.625768,2.980575 3.79346,5.690189 5.961151,8.399803c2.167691,2.438653 2.167691,5.961151 0.541923,8.941726l-3.79346,6.503074c-0.270961,-0.270961 -0.812884,-0.541923 -1.083846,-0.541923c-5.961151,-2.438653 -13.006147,0.812884 -14.360954,7.586919c-0.812884,4.064421 0.812884,8.128842 4.064421,10.296533c5.690189,4.064421 13.006147,1.625768 15.715761,-4.335382c0.812884,-2.167691 1.083846,-4.606344 0.541923,-6.774035c-0.812884,-2.980575 0.541923,-5.961151 2.709614,-7.85788l0.812884,-0.812884c2.709614,-2.167691 6.232112,-2.438653 9.212687,-0.541923s6.232112,3.522498 9.483649,4.877305c3.251537,1.354807 5.148267,4.606344 4.877305,8.128842l-2.709614,22.760757l-1.354807,0c-6.503074,0 -11.65134,5.961151 -10.296533,12.735186c0.812884,3.79346 4.064421,7.044996 7.85788,7.85788c6.774035,1.354807 12.735186,-3.79346 12.735186,-10.025572c0,-2.438653 -0.812884,-4.606344 -2.167691,-6.232112c-1.89673,-2.438653 -1.89673,-5.690189 -0.541923,-8.128842l11.922301,-22.489796l2.167691,0c5.148267,0 10.296533,-0.541923 14.902877,-1.89673c2.980575,-0.812884 6.232112,0.270961 8.399803,2.709614l8.128842,10.567494c-0.270961,0.270961 -0.541923,0.541923 -1.083846,0.812884c-4.606344,4.606344 -4.064421,12.464224 1.625768,16.257684c3.251537,2.167691 7.85788,2.167691 11.109417,0c5.690189,-3.79346 6.503074,-11.380379 1.89673,-15.986722c-1.625768,-1.625768 -3.79346,-2.709614 -5.961151,-2.980575c-2.980575,-0.270961 -5.419228,-2.709614 -6.232112,-5.419228l-1.625768,-5.690189c-1.083846,-3.251537 0.270961,-6.774035 2.980575,-8.670765c3.79346,-2.438653 7.044996,-5.419228 10.025572,-8.670765c2.167691,-2.438653 5.961151,-2.980575 8.941726,-1.89673l23.031719,9.75461c-0.270961,0.270961 -0.270961,0.812884 -0.541923,1.083846c-1.89673,6.232112 2.438653,12.735186 9.483649,13.277108c4.064421,0.270961 7.85788,-1.89673 9.75461,-5.419228c3.251537,-5.961151 0,-13.277108 -6.232112,-14.902877c-2.167691,-0.541923 -4.606344,-0.541923 -6.774035,0.270961c-2.709614,1.083846 -5.961151,0.270961 -8.128842,-1.625768l-14.631915,-13.819031c-2.167691,-2.167691 -2.980575,-5.419228 -1.89673,-8.399803c2.167691,-6.232112 3.251537,-12.735186 3.251537,-19.780182l0,-1.625768l18.425375,-1.89673c0,0.541923 0,0.812884 0.270961,1.354807c1.354807,6.232112 8.399803,10.025572 14.631915,7.044996c3.522498,-1.625768 5.961151,-5.419228 5.961151,-9.483649c0.541923,-6.774035 -5.690189,-11.65134 -11.922301,-10.025572zm-124.642242,26.825178c-5.148267,0 -6.503074,-7.315958 -6.503074,-14.089993s4.335382,-12.193263 9.483649,-12.193263c9.483649,0 10.838456,7.586919 10.838456,14.360954s-8.670765,11.922301 -13.819031,11.922301zm38.74748,31.702483c-7.044996,0 -14.902877,-5.148267 -14.902877,-11.380379c0,-6.232112 8.399803,-9.212687 15.4448,-9.212687s12.193263,2.709614 12.193263,9.212687c0,6.232112 -5.690189,11.380379 -12.735186,11.380379zm-1.354807,-55.547086c-7.85788,0 -17.341529,-6.774035 -17.341529,-15.4448s9.75461,-15.4448 17.341529,-15.4448c7.85788,0 14.089993,3.522498 14.089993,12.193263s-6.232112,18.696336 -14.089993,18.696336zm31.160561,26.012294c-7.586919,0 -13.819031,-7.044996 -13.819031,-12.464224c0,-5.419228 6.232112,-7.044996 13.819031,-7.044996s13.819031,4.335382 13.819031,9.75461s-6.232112,9.75461 -13.819031,9.75461z"/>
  </g>
 </g>
</svg>